<svg width="2000" height="2000" viewBox="0 0 2000 2000" fill="none" xmlns="http://www.w3.org/2000/svg">
<rect width="2000" height="2000" fill="white"/>
<ellipse opacity="0.5" cx="907.5" cy="1631" rx="581.5" ry="88" fill="url(#paint0_radial)"/>
<g filter="url(#filter0_d)">
<path d="M423 690.545C423 585.862 507.862 501 612.545 501H1067.45C1172.14 501 1257 585.862 1257 690.545V1145.45C1257 1250.14 1172.14 1335 1067.45 1335H612.545C507.862 1335 423 1250.14 423 1145.45V690.545Z" fill="#5A369E"/>
<path d="M423 690.545C423 585.862 507.862 501 612.545 501H1067.45C1172.14 501 1257 585.862 1257 690.545V1145.45C1257 1250.14 1172.14 1335 1067.45 1335H612.545C507.862 1335 423 1250.14 423 1145.45V690.545Z" fill="url(#paint1_linear)"/>
<path d="M659.447 1029.84H572.234C564.258 1029.84 557.699 1027.69 552.556 1023.38C547.519 1019.07 545 1012.96 545 1005.06V921.001H574.438V993.204C574.438 997.412 576.747 999.516 581.365 999.516C585.983 999.516 588.291 997.412 588.291 993.204V921.001H616.155V993.204C616.155 997.412 618.464 999.516 623.082 999.516C627.805 999.516 630.166 997.412 630.166 993.204V921.001H659.447V1029.84Z" fill="white"/>
<path d="M741.423 1029.84H671.842V921.001H741.423V949.328H707.892C705.793 949.328 704.166 949.995 703.011 951.33C701.857 952.561 701.28 954.101 701.28 955.948C701.28 957.898 701.805 959.592 702.854 961.029C704.008 962.363 705.688 963.03 707.892 963.03H741.423V984.429H708.521C706.422 984.429 704.691 985.045 703.326 986.277C701.962 987.508 701.28 989.202 701.28 991.357C701.28 995.77 703.694 997.977 708.521 997.977H741.423V1029.84Z" fill="white"/>
<path d="M821.364 1029.84H751.783V921.001H821.364V949.328H787.833C785.734 949.328 784.108 949.995 782.953 951.33C781.799 952.561 781.221 954.101 781.221 955.948C781.221 957.898 781.746 959.592 782.796 961.029C783.95 962.363 785.629 963.03 787.833 963.03H821.364V984.429H788.463C786.364 984.429 784.632 985.045 783.268 986.277C781.904 987.508 781.221 989.202 781.221 991.357C781.221 995.77 783.635 997.977 788.463 997.977H821.364V1029.84Z" fill="white"/>
<path d="M933.578 975.5C933.578 982.89 932.214 989.92 929.485 996.591C926.861 1003.16 923.135 1008.91 918.308 1013.83C913.48 1018.76 907.603 1022.66 900.676 1025.53C893.855 1028.41 886.298 1029.84 878.007 1029.84H831.725V921.001H878.007C886.298 921.001 893.855 922.438 900.676 925.312C907.603 928.083 913.48 931.932 918.308 936.858C923.135 941.785 926.861 947.584 929.485 954.255C932.214 960.823 933.578 967.905 933.578 975.5ZM896.583 993.512C896.583 991.049 896.059 988.74 895.009 986.584C894.065 984.327 892.753 982.428 891.074 980.888C889.394 979.246 887.4 977.963 885.091 977.04C882.888 976.013 880.526 975.5 878.007 975.5C875.489 975.5 873.075 976.013 870.766 977.04C868.562 977.963 866.62 979.246 864.941 980.888C863.262 982.428 861.898 984.327 860.848 986.584C859.904 988.74 859.431 991.049 859.431 993.512C859.431 995.975 859.904 998.336 860.848 1000.59C861.898 1002.85 863.262 1004.8 864.941 1006.44C866.62 1008.09 868.562 1009.42 870.766 1010.45C873.075 1011.37 875.489 1011.83 878.007 1011.83C880.631 1011.83 883.045 1011.37 885.249 1010.45C887.558 1009.52 889.552 1008.24 891.231 1006.6C892.91 1004.96 894.222 1003.01 895.167 1000.75C896.111 998.49 896.583 996.078 896.583 993.512Z" fill="white"/>
<path d="M1012.61 1029.84H943.028V921.001H1012.61V949.328H979.078C976.979 949.328 975.353 949.995 974.198 951.33C973.044 952.561 972.466 954.101 972.466 955.948C972.466 957.898 972.991 959.592 974.041 961.029C975.195 962.363 976.874 963.03 979.078 963.03H1012.61V984.429H979.708C977.609 984.429 975.877 985.045 974.513 986.277C973.149 987.508 972.466 989.202 972.466 991.357C972.466 995.77 974.88 997.977 979.708 997.977H1012.61V1029.84Z" fill="white"/>
<path d="M1136 975.5C1136 983.198 1134.58 990.485 1131.75 997.361C1129.02 1004.13 1125.14 1010.14 1120.1 1015.37C1115.06 1020.5 1108.98 1024.56 1101.84 1027.54C1094.7 1030.51 1086.83 1032 1078.23 1032C1069.51 1032 1061.59 1030.51 1054.45 1027.54C1047.32 1024.56 1041.23 1020.5 1036.19 1015.37C1031.16 1010.14 1027.22 1004.13 1024.39 997.361C1021.66 990.485 1020.29 983.198 1020.29 975.5C1020.29 967.7 1021.71 960.361 1024.54 953.485C1027.38 946.609 1031.31 940.604 1036.35 935.473C1041.49 930.341 1047.58 926.338 1054.61 923.465C1061.75 920.488 1069.62 919 1078.23 919C1086.73 919 1094.49 920.488 1101.52 923.465C1108.66 926.338 1114.75 930.341 1119.79 935.473C1124.93 940.604 1128.92 946.609 1131.75 953.485C1134.58 960.361 1136 967.7 1136 975.5ZM1096.64 993.512C1096.64 991.049 1096.12 988.74 1095.07 986.584C1094.13 984.327 1092.81 982.428 1091.13 980.888C1089.56 979.246 1087.62 977.963 1085.31 977.04C1083.11 976.013 1080.74 975.5 1078.23 975.5C1075.6 975.5 1073.14 976.013 1070.83 977.04C1068.52 977.963 1066.52 979.246 1064.84 980.888C1063.17 982.428 1061.85 984.327 1060.91 986.584C1059.96 988.74 1059.49 991.049 1059.49 993.512C1059.49 996.078 1059.96 998.49 1060.91 1000.75C1061.85 1003.01 1063.17 1004.96 1064.84 1006.6C1066.52 1008.24 1068.52 1009.52 1070.83 1010.45C1073.14 1011.37 1075.6 1011.83 1078.23 1011.83C1080.74 1011.83 1083.11 1011.37 1085.31 1010.45C1087.62 1009.52 1089.56 1008.24 1091.13 1006.6C1092.81 1004.96 1094.13 1003.01 1095.07 1000.75C1096.12 998.49 1096.64 996.078 1096.64 993.512Z" fill="white"/>
<path d="M1304.16 721.2L1673.78 471V1305L1304.16 1054.8V721.2Z" fill="#5A369E"/>
<path d="M1304.16 721.2L1673.78 471V1305L1304.16 1054.8V721.2Z" fill="url(#paint2_linear)"/>
</g>
<path d="M1033.94 553.593C1007.94 553.593 986.87 574.665 986.87 600.658C986.87 626.651 1007.94 647.723 1033.94 647.723C1059.93 647.723 1081 626.651 1081 600.658C1081 574.665 1059.93 553.593 1033.94 553.593Z" fill="white"/>
<path d="M647.507 553.595C621.514 553.595 600.443 574.667 600.443 600.66C600.443 626.653 621.514 647.725 647.507 647.725C673.501 647.725 694.572 626.653 694.572 600.66C694.572 574.667 673.501 553.595 647.507 553.595Z" fill="white"/>
<path d="M840.722 295.978C956.818 295.978 1051.28 389.879 1051.28 505.292L1051.28 601.899C1051.28 610.803 1044.04 618 1035.08 618C1026.12 618 1018.88 610.803 1018.88 601.899L1018.88 505.292C1018.88 407.639 938.953 328.18 840.722 328.18C742.491 328.18 662.562 407.639 662.562 505.292L662.562 601.899C662.562 610.803 655.322 618 646.366 618C637.409 618 630.169 610.803 630.169 601.899L630.169 505.292C630.169 389.879 724.627 295.978 840.722 295.978Z" fill="#53359D"/>
<mask id="mask0" mask-type="alpha" maskUnits="userSpaceOnUse" x="630" y="295" width="422" height="324">
<path d="M840.722 295.978C956.818 295.978 1051.28 389.879 1051.28 505.292L1051.28 601.899C1051.28 610.803 1044.04 618 1035.08 618C1026.12 618 1018.88 610.803 1018.88 601.899L1018.88 505.292C1018.88 407.639 938.953 328.18 840.722 328.18C742.491 328.18 662.562 407.639 662.562 505.292L662.562 601.899C662.562 610.803 655.322 618 646.366 618C637.409 618 630.169 610.803 630.169 601.899L630.169 505.292C630.169 389.879 724.627 295.978 840.722 295.978Z" fill="white"/>
</mask>
<g mask="url(#mask0)">
<line x1="1079.21" y1="547.936" x2="978.424" y2="561.497" stroke="white" stroke-width="2"/>
<line x1="1081.42" y1="487.625" x2="986.863" y2="525.073" stroke="white" stroke-width="2"/>
<line x1="1072.52" y1="439.32" x2="977.965" y2="476.768" stroke="white" stroke-width="2"/>
<line x1="1047.05" y1="380.899" x2="963.147" y2="438.366" stroke="white" stroke-width="2"/>
<line x1="1010.26" y1="327.595" x2="934.026" y2="394.906" stroke="white" stroke-width="2"/>
<line x1="956.101" y1="283.449" x2="889.214" y2="360.055" stroke="white" stroke-width="2"/>
<line x1="792.469" y1="265.993" x2="825.542" y2="362.163" stroke="white" stroke-width="2"/>
<line x1="871.028" y1="264.492" x2="855.728" y2="365.032" stroke="white" stroke-width="2"/>
<line x1="726.312" y1="276.678" x2="779.351" y2="363.449" stroke="white" stroke-width="2"/>
<line x1="675.512" y1="325.674" x2="747.423" y2="397.585" stroke="white" stroke-width="2"/>
<line x1="631.02" y1="366.355" x2="702.931" y2="438.266" stroke="white" stroke-width="2"/>
<line x1="596.097" y1="506.449" x2="694.836" y2="530.801" stroke="white" stroke-width="2"/>
<line x1="607.538" y1="456.871" x2="706.277" y2="481.223" stroke="white" stroke-width="2"/>
<line x1="597.073" y1="555.865" x2="697.626" y2="571.082" stroke="white" stroke-width="2"/>
</g>
<defs>
<filter id="filter0_d" x="293" y="375" width="1450.78" height="1064" filterUnits="userSpaceOnUse" color-interpolation-filters="sRGB">
<feFlood flood-opacity="0" result="BackgroundImageFix"/>
<feColorMatrix in="SourceAlpha" type="matrix" values="0 0 0 0 0 0 0 0 0 0 0 0 0 0 0 0 0 0 127 0"/>
<feOffset dx="-30" dy="4"/>
<feGaussianBlur stdDeviation="50"/>
<feColorMatrix type="matrix" values="0 0 0 0 0 0 0 0 0 0 0 0 0 0 0 0 0 0 0.25 0"/>
<feBlend mode="normal" in2="BackgroundImageFix" result="effect1_dropShadow"/>
<feBlend mode="normal" in="SourceGraphic" in2="effect1_dropShadow" result="shape"/>
</filter>
<radialGradient id="paint0_radial" cx="0" cy="0" r="1" gradientUnits="userSpaceOnUse" gradientTransform="translate(907.5 1631) rotate(90) scale(88 581.5)">
<stop stop-opacity="0.48"/>
<stop offset="0.588542" stop-opacity="0.21"/>
<stop offset="1" stop-opacity="0"/>
</radialGradient>
<linearGradient id="paint1_linear" x1="1210" y1="411" x2="337.219" y2="1507.78" gradientUnits="userSpaceOnUse">
<stop stop-color="#F31313"/>
<stop offset="1" stop-color="#0239C5" stop-opacity="0"/>
</linearGradient>
<linearGradient id="paint2_linear" x1="1652.95" y1="381" x2="891.497" y2="805.07" gradientUnits="userSpaceOnUse">
<stop stop-color="#F31313"/>
<stop offset="1" stop-color="#0239C5" stop-opacity="0"/>
</linearGradient>
</defs>
</svg>
