<svg width="32" height="32" xmlns="http://www.w3.org/2000/svg">
 <title/>

 <g>
  <title>background</title>
  <rect fill="none" id="canvas_background" height="402" width="582" y="-1" x="-1"/>
 </g>
 <g>
  <title>Layer 1</title>
  <path fill="#a8a8a8" id="svg_1" d="m12,15l-5,0a3,3 0 0 1 -3,-3l0,-5a3,3 0 0 1 3,-3l5,0a3,3 0 0 1 3,3l0,5a3,3 0 0 1 -3,3z"/>
  <path fill="#a8a8a8" id="svg_2" d="m25,15l-5,0a3,3 0 0 1 -3,-3l0,-5a3,3 0 0 1 3,-3l5,0a3,3 0 0 1 3,3l0,5a3,3 0 0 1 -3,3z"/>
  <path fill="#a8a8a8" id="svg_3" d="m12,28l-5,0a3,3 0 0 1 -3,-3l0,-5a3,3 0 0 1 3,-3l5,0a3,3 0 0 1 3,3l0,5a3,3 0 0 1 -3,3z"/>
  <path fill="#a8a8a8" id="svg_4" d="m25,28l-5,0a3,3 0 0 1 -3,-3l0,-5a3,3 0 0 1 3,-3l5,0a3,3 0 0 1 3,3l0,5a3,3 0 0 1 -3,3z"/>
 </g>
</svg>